<mxfile host="Electron" agent="Mozilla/5.0 (Windows NT 10.0; Win64; x64) AppleWebKit/537.36 (KHTML, like Gecko) draw.io/24.7.8 Chrome/128.0.6613.36 Electron/32.0.1 Safari/537.36" version="24.7.8">
  <diagram name="Page-1" id="2YBvvXClWsGukQMizWep">
    <mxGraphModel dx="591" dy="292" grid="1" gridSize="10" guides="1" tooltips="1" connect="1" arrows="1" fold="1" page="1" pageScale="1" pageWidth="850" pageHeight="500" math="0" shadow="0">
      <root>
        <mxCell id="0" />
        <mxCell id="1" parent="0" />
        <mxCell id="aM9ryv3xv72pqoxQDRHE-1" value="Sistema: kernel" style="shape=umlLifeline;perimeter=lifelinePerimeter;whiteSpace=wrap;html=1;container=0;dropTarget=0;collapsible=0;recursiveResize=0;outlineConnect=0;portConstraint=eastwest;newEdgeStyle={&quot;edgeStyle&quot;:&quot;elbowEdgeStyle&quot;,&quot;elbow&quot;:&quot;vertical&quot;,&quot;curved&quot;:0,&quot;rounded&quot;:0};" parent="1" vertex="1">
          <mxGeometry x="160" y="40" width="100" height="735" as="geometry" />
        </mxCell>
        <mxCell id="6_Ev5rgd4BP1chR9d7Kz-4" value="" style="html=1;points=[[0,0,0,0,5],[0,1,0,0,-5],[1,0,0,0,5],[1,1,0,0,-5]];perimeter=orthogonalPerimeter;outlineConnect=0;targetShapes=umlLifeline;portConstraint=eastwest;newEdgeStyle={&quot;curved&quot;:0,&quot;rounded&quot;:0};" parent="aM9ryv3xv72pqoxQDRHE-1" vertex="1">
          <mxGeometry x="45" y="80" width="10" height="450" as="geometry" />
        </mxCell>
        <mxCell id="aM9ryv3xv72pqoxQDRHE-5" value="Security:seguridad" style="shape=umlLifeline;perimeter=lifelinePerimeter;whiteSpace=wrap;html=1;container=0;dropTarget=0;collapsible=0;recursiveResize=0;outlineConnect=0;portConstraint=eastwest;newEdgeStyle={&quot;edgeStyle&quot;:&quot;elbowEdgeStyle&quot;,&quot;elbow&quot;:&quot;vertical&quot;,&quot;curved&quot;:0,&quot;rounded&quot;:0};" parent="1" vertex="1">
          <mxGeometry x="460" y="40" width="100" height="630" as="geometry" />
        </mxCell>
        <mxCell id="6_Ev5rgd4BP1chR9d7Kz-20" value="" style="html=1;points=[[0,0,0,0,5],[0,1,0,0,-5],[1,0,0,0,5],[1,1,0,0,-5]];perimeter=orthogonalPerimeter;outlineConnect=0;targetShapes=umlLifeline;portConstraint=eastwest;newEdgeStyle={&quot;curved&quot;:0,&quot;rounded&quot;:0};" parent="aM9ryv3xv72pqoxQDRHE-5" vertex="1">
          <mxGeometry x="45" y="220" width="10" height="40" as="geometry" />
        </mxCell>
        <mxCell id="7M-QqSc3hpRfXphPCpIL-36" value="" style="html=1;points=[[0,0,0,0,5],[0,1,0,0,-5],[1,0,0,0,5],[1,1,0,0,-5]];perimeter=orthogonalPerimeter;outlineConnect=0;targetShapes=umlLifeline;portConstraint=eastwest;newEdgeStyle={&quot;curved&quot;:0,&quot;rounded&quot;:0};" parent="aM9ryv3xv72pqoxQDRHE-5" vertex="1">
          <mxGeometry x="45" y="350" width="10" height="30" as="geometry" />
        </mxCell>
        <mxCell id="6_Ev5rgd4BP1chR9d7Kz-5" value="RegistrarUsuario" style="html=1;verticalAlign=bottom;endArrow=open;curved=0;rounded=0;endFill=0;" parent="1" edge="1">
          <mxGeometry width="80" relative="1" as="geometry">
            <mxPoint x="60" y="120" as="sourcePoint" />
            <mxPoint x="205" y="120" as="targetPoint" />
          </mxGeometry>
        </mxCell>
        <mxCell id="6_Ev5rgd4BP1chR9d7Kz-10" value="User:usuario" style="shape=umlLifeline;perimeter=lifelinePerimeter;whiteSpace=wrap;html=1;container=1;dropTarget=0;collapsible=0;recursiveResize=0;outlineConnect=0;portConstraint=eastwest;newEdgeStyle={&quot;curved&quot;:0,&quot;rounded&quot;:0};" parent="1" vertex="1">
          <mxGeometry x="325" y="120" width="100" height="730" as="geometry" />
        </mxCell>
        <mxCell id="6_Ev5rgd4BP1chR9d7Kz-12" value="" style="html=1;points=[[0,0,0,0,5],[0,1,0,0,-5],[1,0,0,0,5],[1,1,0,0,-5]];perimeter=orthogonalPerimeter;outlineConnect=0;targetShapes=umlLifeline;portConstraint=eastwest;newEdgeStyle={&quot;curved&quot;:0,&quot;rounded&quot;:0};" parent="6_Ev5rgd4BP1chR9d7Kz-10" vertex="1">
          <mxGeometry x="45" y="95" width="10" height="85" as="geometry" />
        </mxCell>
        <mxCell id="6_Ev5rgd4BP1chR9d7Kz-13" value="darDeAlta" style="html=1;verticalAlign=bottom;endArrow=open;curved=0;rounded=0;endFill=0;" parent="1" edge="1">
          <mxGeometry x="-0.0357" y="-20" width="80" relative="1" as="geometry">
            <mxPoint x="215" y="160" as="sourcePoint" />
            <mxPoint x="330" y="160" as="targetPoint" />
            <mxPoint as="offset" />
          </mxGeometry>
        </mxCell>
        <mxCell id="6_Ev5rgd4BP1chR9d7Kz-17" value="alt" style="shape=umlFrame;whiteSpace=wrap;html=1;pointerEvents=0;" parent="1" vertex="1">
          <mxGeometry x="370" y="180" width="150" height="150" as="geometry" />
        </mxCell>
        <mxCell id="6_Ev5rgd4BP1chR9d7Kz-23" value="" style="endArrow=open;endFill=1;endSize=12;html=1;rounded=0;entryX=-0.26;entryY=0.493;entryDx=0;entryDy=0;entryPerimeter=0;" parent="1" source="6_Ev5rgd4BP1chR9d7Kz-6" edge="1">
          <mxGeometry width="160" relative="1" as="geometry">
            <mxPoint x="383.8" y="234.79999999999995" as="sourcePoint" />
            <mxPoint x="506.2" y="234.79999999999995" as="targetPoint" />
          </mxGeometry>
        </mxCell>
        <mxCell id="6_Ev5rgd4BP1chR9d7Kz-24" value="(2FA=SMS)" style="text;html=1;align=center;verticalAlign=middle;resizable=0;points=[];autosize=1;strokeColor=none;fillColor=none;" parent="1" vertex="1">
          <mxGeometry x="410" y="190" width="90" height="30" as="geometry" />
        </mxCell>
        <mxCell id="6_Ev5rgd4BP1chR9d7Kz-26" value="2FA=mail" style="text;html=1;align=center;verticalAlign=middle;resizable=0;points=[];autosize=1;strokeColor=none;fillColor=none;" parent="1" vertex="1">
          <mxGeometry x="370" y="250" width="70" height="30" as="geometry" />
        </mxCell>
        <mxCell id="6_Ev5rgd4BP1chR9d7Kz-27" value="" style="endArrow=open;endFill=1;endSize=12;html=1;rounded=0;exitX=1;exitY=1;exitDx=0;exitDy=-5;exitPerimeter=0;" parent="1" edge="1">
          <mxGeometry width="160" relative="1" as="geometry">
            <mxPoint x="380" y="279.43" as="sourcePoint" />
            <mxPoint x="505" y="279.43" as="targetPoint" />
          </mxGeometry>
        </mxCell>
        <mxCell id="6_Ev5rgd4BP1chR9d7Kz-28" value="Este diagrama intenta reflejar como una persona se registra, y si verifica en ese momento sus datos, realiza la creacion de usuario + la billetera" style="text;html=1;align=center;verticalAlign=middle;resizable=0;points=[];autosize=1;strokeColor=none;fillColor=none;" parent="1" vertex="1">
          <mxGeometry x="10" width="790" height="30" as="geometry" />
        </mxCell>
        <mxCell id="7M-QqSc3hpRfXphPCpIL-7" value="Actor" style="shape=umlActor;verticalLabelPosition=bottom;verticalAlign=top;html=1;outlineConnect=0;" parent="1" vertex="1">
          <mxGeometry x="50" y="40" width="20" height="40" as="geometry" />
        </mxCell>
        <mxCell id="7M-QqSc3hpRfXphPCpIL-10" value="" style="endArrow=none;dashed=1;html=1;rounded=0;" parent="1" edge="1">
          <mxGeometry width="50" height="50" relative="1" as="geometry">
            <mxPoint x="60" y="850.7407407407408" as="sourcePoint" />
            <mxPoint x="59.8" y="100" as="targetPoint" />
          </mxGeometry>
        </mxCell>
        <mxCell id="7M-QqSc3hpRfXphPCpIL-15" value="" style="endArrow=none;dashed=1;html=1;rounded=0;" parent="1" edge="1">
          <mxGeometry width="50" height="50" relative="1" as="geometry">
            <mxPoint x="380" y="254.70999999999998" as="sourcePoint" />
            <mxPoint x="519.5" y="254.71000000000004" as="targetPoint" />
          </mxGeometry>
        </mxCell>
        <mxCell id="7M-QqSc3hpRfXphPCpIL-18" value="" style="endArrow=classic;html=1;rounded=0;strokeColor=default;edgeStyle=orthogonalEdgeStyle;exitX=1;exitY=0;exitDx=0;exitDy=5;exitPerimeter=0;" parent="1" edge="1">
          <mxGeometry width="50" height="50" relative="1" as="geometry">
            <mxPoint x="512" y="265" as="sourcePoint" />
            <mxPoint x="507" y="280" as="targetPoint" />
            <Array as="points">
              <mxPoint x="512" y="260" />
              <mxPoint x="560" y="260" />
              <mxPoint x="560" y="280" />
            </Array>
          </mxGeometry>
        </mxCell>
        <mxCell id="7M-QqSc3hpRfXphPCpIL-19" value="HANDLER" style="edgeLabel;html=1;align=center;verticalAlign=middle;resizable=0;points=[];" parent="7M-QqSc3hpRfXphPCpIL-18" vertex="1" connectable="0">
          <mxGeometry x="-0.4844" relative="1" as="geometry">
            <mxPoint x="18" y="10" as="offset" />
          </mxGeometry>
        </mxCell>
        <mxCell id="7M-QqSc3hpRfXphPCpIL-22" value="" style="endArrow=open;endFill=1;endSize=12;html=1;rounded=0;entryX=-0.26;entryY=0.493;entryDx=0;entryDy=0;entryPerimeter=0;exitX=1;exitY=0;exitDx=0;exitDy=5;exitPerimeter=0;" parent="1" edge="1" source="6_Ev5rgd4BP1chR9d7Kz-12">
          <mxGeometry width="160" relative="1" as="geometry">
            <mxPoint x="385.7" y="220.00999999999996" as="sourcePoint" />
            <mxPoint x="504.29999999999995" y="220.00000000000003" as="targetPoint" />
            <Array as="points">
              <mxPoint x="441.9" y="220.21" />
            </Array>
          </mxGeometry>
        </mxCell>
        <mxCell id="6_Ev5rgd4BP1chR9d7Kz-6" value="" style="html=1;points=[[0,0,0,0,5],[0,1,0,0,-5],[1,0,0,0,5],[1,1,0,0,-5]];perimeter=orthogonalPerimeter;outlineConnect=0;targetShapes=umlLifeline;portConstraint=eastwest;newEdgeStyle={&quot;curved&quot;:0,&quot;rounded&quot;:0};" parent="1" vertex="1">
          <mxGeometry x="505" y="220" width="10" height="30" as="geometry" />
        </mxCell>
        <mxCell id="7M-QqSc3hpRfXphPCpIL-4" value="" style="endArrow=classic;html=1;rounded=0;strokeColor=default;edgeStyle=orthogonalEdgeStyle;exitX=1;exitY=0;exitDx=0;exitDy=5;exitPerimeter=0;" parent="1" edge="1">
          <mxGeometry width="50" height="50" relative="1" as="geometry">
            <mxPoint x="512" y="225" as="sourcePoint" />
            <mxPoint x="506.91176470588243" y="240" as="targetPoint" />
            <Array as="points">
              <mxPoint x="512" y="220" />
              <mxPoint x="560" y="220" />
              <mxPoint x="560" y="240" />
            </Array>
          </mxGeometry>
        </mxCell>
        <mxCell id="7M-QqSc3hpRfXphPCpIL-17" value="HANDLER" style="edgeLabel;html=1;align=center;verticalAlign=middle;resizable=0;points=[];" parent="7M-QqSc3hpRfXphPCpIL-4" vertex="1" connectable="0">
          <mxGeometry x="-0.4844" relative="1" as="geometry">
            <mxPoint x="11" y="10" as="offset" />
          </mxGeometry>
        </mxCell>
        <mxCell id="7M-QqSc3hpRfXphPCpIL-24" value="return" style="html=1;verticalAlign=bottom;endArrow=open;dashed=1;endSize=8;curved=0;rounded=0;" parent="1" edge="1" target="6_Ev5rgd4BP1chR9d7Kz-12" source="6_Ev5rgd4BP1chR9d7Kz-6">
          <mxGeometry relative="1" as="geometry">
            <mxPoint x="500" y="234.71" as="sourcePoint" />
            <mxPoint x="420" y="234.71" as="targetPoint" />
            <mxPoint as="offset" />
          </mxGeometry>
        </mxCell>
        <mxCell id="7M-QqSc3hpRfXphPCpIL-25" value="return" style="html=1;verticalAlign=bottom;endArrow=open;dashed=1;endSize=8;curved=0;rounded=0;" parent="1" edge="1" target="6_Ev5rgd4BP1chR9d7Kz-4">
          <mxGeometry relative="1" as="geometry">
            <mxPoint x="370" y="234.71" as="sourcePoint" />
            <mxPoint x="219.91176470588232" y="234.71000000000004" as="targetPoint" />
            <mxPoint as="offset" />
          </mxGeometry>
        </mxCell>
        <mxCell id="7M-QqSc3hpRfXphPCpIL-26" value="return" style="html=1;verticalAlign=bottom;endArrow=open;dashed=1;endSize=8;curved=0;rounded=0;" parent="1" edge="1" target="6_Ev5rgd4BP1chR9d7Kz-4">
          <mxGeometry relative="1" as="geometry">
            <mxPoint x="370" y="284.71000000000004" as="sourcePoint" />
            <mxPoint x="219.91176470588232" y="284.71000000000004" as="targetPoint" />
            <mxPoint as="offset" />
          </mxGeometry>
        </mxCell>
        <mxCell id="7M-QqSc3hpRfXphPCpIL-27" value="verificar identidad?" style="html=1;verticalAlign=bottom;endArrow=open;curved=0;rounded=0;endFill=0;entryX=0;entryY=0;entryDx=0;entryDy=5;entryPerimeter=0;" parent="1" edge="1" target="7M-QqSc3hpRfXphPCpIL-33" source="6_Ev5rgd4BP1chR9d7Kz-4">
          <mxGeometry x="-0.0357" y="-20" width="80" relative="1" as="geometry">
            <mxPoint x="220" y="370" as="sourcePoint" />
            <mxPoint x="360" y="370" as="targetPoint" />
            <mxPoint as="offset" />
          </mxGeometry>
        </mxCell>
        <mxCell id="7M-QqSc3hpRfXphPCpIL-28" value="alt" style="shape=umlFrame;whiteSpace=wrap;html=1;pointerEvents=0;" parent="1" vertex="1">
          <mxGeometry x="370" y="360" width="150" height="150" as="geometry" />
        </mxCell>
        <mxCell id="7M-QqSc3hpRfXphPCpIL-29" value="si" style="text;html=1;align=center;verticalAlign=middle;resizable=0;points=[];autosize=1;strokeColor=none;fillColor=none;" parent="1" vertex="1">
          <mxGeometry x="370" y="390" width="30" height="30" as="geometry" />
        </mxCell>
        <mxCell id="7M-QqSc3hpRfXphPCpIL-30" value="" style="endArrow=none;dashed=1;html=1;rounded=0;" parent="1" edge="1">
          <mxGeometry width="50" height="50" relative="1" as="geometry">
            <mxPoint x="380.5" y="469.74" as="sourcePoint" />
            <mxPoint x="520" y="469.74" as="targetPoint" />
          </mxGeometry>
        </mxCell>
        <mxCell id="7M-QqSc3hpRfXphPCpIL-31" value="ahora no" style="text;html=1;align=center;verticalAlign=middle;resizable=0;points=[];autosize=1;strokeColor=none;fillColor=none;" parent="1" vertex="1">
          <mxGeometry x="425" y="470" width="70" height="30" as="geometry" />
        </mxCell>
        <mxCell id="7M-QqSc3hpRfXphPCpIL-33" value="" style="html=1;points=[[0,0,0,0,5],[0,1,0,0,-5],[1,0,0,0,5],[1,1,0,0,-5]];perimeter=orthogonalPerimeter;outlineConnect=0;targetShapes=umlLifeline;portConstraint=eastwest;newEdgeStyle={&quot;curved&quot;:0,&quot;rounded&quot;:0};" parent="1" vertex="1">
          <mxGeometry x="370" y="380" width="10" height="180" as="geometry" />
        </mxCell>
        <mxCell id="7M-QqSc3hpRfXphPCpIL-34" value="enviar documentacion" style="html=1;verticalAlign=bottom;endArrow=open;curved=0;rounded=0;endFill=0;" parent="1" edge="1">
          <mxGeometry x="-0.08" width="80" relative="1" as="geometry">
            <mxPoint x="382.5" y="400" as="sourcePoint" />
            <mxPoint x="507.5" y="400" as="targetPoint" />
            <mxPoint as="offset" />
          </mxGeometry>
        </mxCell>
        <mxCell id="7M-QqSc3hpRfXphPCpIL-39" value="return true" style="html=1;verticalAlign=bottom;endArrow=open;dashed=1;endSize=8;curved=0;rounded=0;exitX=0;exitY=1;exitDx=0;exitDy=-5;exitPerimeter=0;entryX=0.322;entryY=0.943;entryDx=0;entryDy=0;entryPerimeter=0;" parent="1" edge="1" target="7M-QqSc3hpRfXphPCpIL-29" source="7M-QqSc3hpRfXphPCpIL-36">
          <mxGeometry x="0.125" relative="1" as="geometry">
            <mxPoint x="495" y="420" as="sourcePoint" />
            <mxPoint x="415" y="420" as="targetPoint" />
            <mxPoint as="offset" />
          </mxGeometry>
        </mxCell>
        <mxCell id="7M-QqSc3hpRfXphPCpIL-41" value="Acceso a todas las funcionalidades&amp;nbsp;" style="html=1;verticalAlign=bottom;endArrow=open;curved=0;rounded=0;endFill=0;" parent="1" edge="1">
          <mxGeometry x="0.0909" width="80" relative="1" as="geometry">
            <mxPoint x="380" y="439.7" as="sourcePoint" />
            <mxPoint x="620" y="440" as="targetPoint" />
            <mxPoint as="offset" />
          </mxGeometry>
        </mxCell>
        <mxCell id="7M-QqSc3hpRfXphPCpIL-42" value="Billetera:Wallet" style="shape=umlLifeline;perimeter=lifelinePerimeter;whiteSpace=wrap;html=1;container=1;dropTarget=0;collapsible=0;recursiveResize=0;outlineConnect=0;portConstraint=eastwest;newEdgeStyle={&quot;curved&quot;:0,&quot;rounded&quot;:0};" parent="1" vertex="1">
          <mxGeometry x="620" y="410" width="100" height="410" as="geometry" />
        </mxCell>
        <mxCell id="7M-QqSc3hpRfXphPCpIL-44" value="" style="html=1;points=[[0,0,0,0,5],[0,1,0,0,-5],[1,0,0,0,5],[1,1,0,0,-5]];perimeter=orthogonalPerimeter;outlineConnect=0;targetShapes=umlLifeline;portConstraint=eastwest;newEdgeStyle={&quot;curved&quot;:0,&quot;rounded&quot;:0};" parent="7M-QqSc3hpRfXphPCpIL-42" vertex="1">
          <mxGeometry x="45" y="40" width="10" height="30" as="geometry" />
        </mxCell>
        <mxCell id="7M-QqSc3hpRfXphPCpIL-45" value="asociar a Usuario" style="html=1;verticalAlign=bottom;endArrow=open;dashed=1;endSize=8;curved=0;rounded=0;" parent="1" target="7M-QqSc3hpRfXphPCpIL-33" edge="1">
          <mxGeometry x="0.0004" relative="1" as="geometry">
            <mxPoint x="665" y="460" as="sourcePoint" />
            <mxPoint x="515" y="460" as="targetPoint" />
            <mxPoint as="offset" />
          </mxGeometry>
        </mxCell>
        <mxCell id="7M-QqSc3hpRfXphPCpIL-46" value="Usuario Creado" style="html=1;verticalAlign=bottom;endArrow=open;dashed=1;endSize=8;curved=0;rounded=0;" parent="1" edge="1" target="6_Ev5rgd4BP1chR9d7Kz-4">
          <mxGeometry relative="1" as="geometry">
            <mxPoint x="370" y="550" as="sourcePoint" />
            <mxPoint x="220" y="550" as="targetPoint" />
            <mxPoint as="offset" />
          </mxGeometry>
        </mxCell>
        <mxCell id="7M-QqSc3hpRfXphPCpIL-47" value="Actor recibe su Usuario" style="html=1;verticalAlign=bottom;endArrow=open;dashed=1;endSize=8;curved=0;rounded=0;" parent="1" source="6_Ev5rgd4BP1chR9d7Kz-4" edge="1">
          <mxGeometry relative="1" as="geometry">
            <mxPoint x="200" y="560" as="sourcePoint" />
            <mxPoint x="60" y="560" as="targetPoint" />
            <mxPoint as="offset" />
          </mxGeometry>
        </mxCell>
        <mxCell id="7M-QqSc3hpRfXphPCpIL-48" value="si!" style="text;html=1;align=center;verticalAlign=middle;resizable=0;points=[];autosize=1;strokeColor=none;fillColor=none;" parent="1" vertex="1">
          <mxGeometry x="440" y="360" width="40" height="30" as="geometry" />
        </mxCell>
        <mxCell id="M3EZw1Y6jtqfoTqncVro-1" value="return" style="html=1;verticalAlign=bottom;endArrow=open;dashed=1;endSize=8;curved=0;rounded=0;exitX=0;exitY=1;exitDx=0;exitDy=-5;exitPerimeter=0;entryX=1;entryY=1;entryDx=0;entryDy=-5;entryPerimeter=0;" edge="1" parent="1" source="6_Ev5rgd4BP1chR9d7Kz-20" target="6_Ev5rgd4BP1chR9d7Kz-12">
          <mxGeometry relative="1" as="geometry">
            <mxPoint x="490" y="290" as="sourcePoint" />
            <mxPoint x="410" y="290" as="targetPoint" />
          </mxGeometry>
        </mxCell>
      </root>
    </mxGraphModel>
  </diagram>
</mxfile>
